<?xml version="1.0" encoding="UTF-8" standalone="no"?>
<svg width="893px" height="152px" viewBox="0 0 893 152" version="1.1" xmlns="http://www.w3.org/2000/svg" xmlns:xlink="http://www.w3.org/1999/xlink">
    <!-- Generator: Sketch 3.8.3 (29802) - http://www.bohemiancoding.com/sketch -->
    <title>HIKETRACKER</title>
    <desc>Created with Sketch.</desc>
    <defs></defs>
    <g id="Page-1" stroke="none" stroke-width="1" fill="none" fill-rule="evenodd">
        <g id="HIKETRACKER" transform="translate(0.000000, 50.000000)">
            <path d="M59.23,62.685 L33.04,62.685 L33.04,99 L0.91,99 L0.91,3.42 L32.905,3.42 L32.905,35.82 L59.095,35.82 L59.095,3.42 L91.36,3.42 L91.36,99 L59.23,99 L59.23,62.685 Z M99.47,3.42 L131.87,3.42 L131.87,99 L99.47,99 L99.47,3.42 Z M171.57,60.93 L171.3,60.93 L171.3,99 L139.98,99 L139.98,3.42 L171.165,3.42 L171.165,38.655 L171.435,38.655 L196.95,3.42 L234.75,3.42 L198.84,47.16 L236.505,99 L197.085,99 L171.57,60.93 Z M233.275,3.42 L299.02,3.42 L299.02,30.15 L263.515,30.15 L263.515,38.385 L296.86,38.385 L296.86,63.36 L263.515,63.36 L263.515,72.27 L301.315,72.27 L301.315,99 L233.275,99 L233.275,3.42 Z M352.625,99 L320.495,99 L320.495,30.555 L297.005,30.555 L297.005,3.42 L289.29248,3.42 L376.115,3.42 L376.115,30.555 L352.625,30.555 L352.625,99 Z M376.26,3.42 L417.435,3.42 C422.115023,3.42 426.772477,3.89249527 431.4075,4.8375 C436.042523,5.78250472 440.182482,7.44748807 443.8275,9.8325 C447.472518,12.2175119 450.419989,15.41248 452.67,19.4175 C454.920011,23.42252 456.045,28.4399699 456.045,34.47 C456.045,40.3200293 454.605014,45.4724777 451.725,49.9275 C448.844985,54.3825223 444.705027,57.8249879 439.305,60.255 L463.605,99 L426.615,99 L408.255,64.845 L407.31,64.845 L407.31,99 L376.26,99 L376.26,3.42 Z M407.04,43.785 L413.385,43.785 C414.465005,43.785 415.657493,43.6950009 416.9625,43.515 C418.267506,43.3349991 419.482494,42.9525029 420.6075,42.3675 C421.732505,41.7824971 422.677496,40.9725052 423.4425,39.9375 C424.207504,38.9024948 424.59,37.5300085 424.59,35.82 C424.59,34.1099914 424.275003,32.7600049 423.645,31.77 C423.014997,30.779995 422.205005,30.0375025 421.215,29.5425 C420.224995,29.0474975 419.145006,28.7325007 417.975,28.5975 C416.804994,28.4624993 415.725005,28.395 414.735,28.395 L407.04,28.395 L407.04,43.785 Z M489.535,3.42 L523.69,3.42 L560.95,99 L525.985,99 L520.99,84.96 L490.615,84.96 L485.89,99 L451.87,99 L489.535,3.42 Z M506.14,36.765 L498.31,60.39 L513.835,60.39 L506.14,36.765 Z M551.24,51.21 C551.24,43.5599617 552.589986,36.630031 555.29,30.42 C557.990013,24.2099689 561.679976,18.900022 566.36,14.49 C571.040023,10.0799779 576.552468,6.68251193 582.8975,4.2975 C589.242531,1.91248807 596.014964,0.72 603.215,0.72 C610.595037,0.72 617.569967,1.91248807 624.14,4.2975 C630.710033,6.68251193 636.199978,9.89997975 640.61,13.95 L620.9,37.71 C619.099991,35.3699883 616.850013,33.5925061 614.15,32.3775 C611.449986,31.1624939 608.435016,30.555 605.105,30.555 C602.404986,30.555 599.885011,31.0274953 597.545,31.9725 C595.204988,32.9175047 593.157509,34.289991 591.4025,36.09 C589.647491,37.890009 588.275005,40.0724872 587.285,42.6375 C586.294995,45.2025128 585.8,48.0599842 585.8,51.21 C585.8,54.3600158 586.317495,57.1724876 587.3525,59.6475 C588.387505,62.1225124 589.782491,64.259991 591.5375,66.06 C593.292509,67.860009 595.339988,69.2324953 597.68,70.1775 C600.020011,71.1225047 602.494987,71.595 605.105,71.595 C608.795018,71.595 611.967486,70.8300076 614.6225,69.3 C617.277513,67.7699923 619.369992,65.9700103 620.9,63.9 L640.61,87.525 C636.289978,91.8450216 630.980031,95.2874872 624.68,97.8525 C618.379968,100.417513 611.22504,101.7 603.215,101.7 C596.014964,101.7 589.242531,100.485012 582.8975,98.055 C576.552468,95.6249878 571.040023,92.1825223 566.36,87.7275 C561.679976,83.2724777 557.990013,77.9625308 555.29,71.7975 C552.589986,65.6324692 551.24,58.7700378 551.24,51.21 L551.24,51.21 Z M671.4,60.93 L671.13,60.93 L671.13,99 L639.81,99 L639.81,3.42 L670.995,3.42 L670.995,38.655 L671.265,38.655 L696.78,3.42 L734.58,3.42 L698.67,47.16 L736.335,99 L696.915,99 L671.4,60.93 Z M733.105,3.42 L798.85,3.42 L798.85,30.15 L763.345,30.15 L763.345,38.385 L796.69,38.385 L796.69,63.36 L763.345,63.36 L763.345,72.27 L801.145,72.27 L801.145,99 L733.105,99 L733.105,3.42 Z M804.8,3.42 L845.975,3.42 C850.655023,3.42 855.312476,3.89249527 859.9475,4.8375 C864.582523,5.78250472 868.722481,7.44748807 872.3675,9.8325 C876.012518,12.2175119 878.959988,15.41248 881.21,19.4175 C883.460011,23.42252 884.585,28.4399699 884.585,34.47 C884.585,40.3200293 883.145014,45.4724777 880.265,49.9275 C877.384985,54.3825223 873.245027,57.8249879 867.845,60.255 L892.145,99 L855.155,99 L836.795,64.845 L835.85,64.845 L835.85,99 L804.8,99 L804.8,3.42 Z M835.58,43.785 L841.925,43.785 C843.005005,43.785 844.197493,43.6950009 845.5025,43.515 C846.807506,43.3349991 848.022494,42.9525029 849.1475,42.3675 C850.272505,41.7824971 851.217496,40.9725052 851.9825,39.9375 C852.747503,38.9024948 853.13,37.5300085 853.13,35.82 C853.13,34.1099914 852.815003,32.7600049 852.185,31.77 C851.554996,30.779995 850.745005,30.0375025 849.755,29.5425 C848.764995,29.0474975 847.685005,28.7325007 846.515,28.5975 C845.344994,28.4624993 844.265005,28.395 843.275,28.395 L835.58,28.395 L835.58,43.785 Z" fill="#5E5E5E"></path>
            <polygon id="Path-1" stroke="#979797" stroke-width="1" fill="#AAAAAA" points="1 0.30859375 45.53125 -30.0032526 109.960937 -19.1161375 159.957031 -48.2300703 258.730469 -27.8015625 318.074219 -47.7734071 389.5 -6.32294993 492.652344 -43.1185311 567.304688 -17.5784841 650.886719 -47.0321567 687.214844 -36.1472477 701.816406 -45.3775799 737.730469 -32.7983843 771.125 -49 892.480469 0.30859375"></polygon>
        </g>
    </g>
</svg>